{
  "accessors": [
    {
      "bufferView": 2,
      "componentType": 5126,
      "count": 38206,
      "max": [
        0.13056807219982147,
        -1.509885424154367e-13,
        0.07211828231811523
      ],
      "min": [
        -0.13056807219982147,
        -0.11553701013326645,
        -0.07211828231811523
      ],
      "type": "VEC3"
    },
    {
      "bufferView": 2,
      "byteOffset": 458472,
      "componentType": 5126,
      "count": 38206,
      "max": [
        0.9999969601631165,
        0.9999926686286926,
        0.9999086260795593
      ],
      "min": [
        -0.9999045133590698,
        -0.9999180436134338,
        -0.999995231628418
      ],
      "type": "VEC3"
    },
    {
      "bufferView": 1,
      "componentType": 5126,
      "count": 38206,
      "max": [
        0.9999459981918335,
        0.9969549775123596
      ],
      "min": [
        5.812379822600633e-05,
        7.846149856050033e-06
      ],
      "type": "VEC2"
    },
    {
      "bufferView": 0,
      "componentType": 5125,
      "count": 206442,
      "type": "SCALAR"
    },
    {
      "bufferView": 2,
      "byteOffset": 916944,
      "componentType": 5126,
      "count": 382,
      "max": [
        0.027385346591472626,
        -0.03843950852751732,
        -0.06965599209070206
      ],
      "min": [
        -0.012336671352386475,
        -0.079898901283741,
        -0.07211828231811523
      ],
      "type": "VEC3"
    },
    {
      "bufferView": 2,
      "byteOffset": 921528,
      "componentType": 5126,
      "count": 382,
      "max": [
        0.9702939987182617,
        0.9609383940696716,
        0.9452370405197144
      ],
      "min": [
        -0.9632516503334045,
        -0.9532582759857178,
        -0.999583899974823
      ],
      "type": "VEC3"
    },
    {
      "bufferView": 1,
      "byteOffset": 305648,
      "componentType": 5126,
      "count": 382,
      "max": [
        0.0,
        0.0
      ],
      "min": [
        0.0,
        0.0
      ],
      "type": "VEC2"
    },
    {
      "bufferView": 0,
      "byteOffset": 825768,
      "componentType": 5125,
      "count": 1890,
      "type": "SCALAR"
    }
  ],
  "asset": {
    "extras": {
      "author": "emm (https://sketchfab.com/edemaistre)",
      "license": "CC-BY-4.0 (http://creativecommons.org/licenses/by/4.0/)",
      "source": "https://sketchfab.com/3d-models/day-226-converse-all-star-first-shoe-scan-9caaf1780c3348e8beadd5ebc311d95a",
      "title": "Day 226: Converse All Star (first shoe scan)..!"
    },
    "generator": "Sketchfab-11.53.2",
    "version": "2.0"
  },
  "bufferViews": [
    {
      "buffer": 0,
      "byteLength": 833328,
      "name": "floatBufferViews",
      "target": 34963
    },
    {
      "buffer": 0,
      "byteLength": 308704,
      "byteOffset": 833328,
      "byteStride": 8,
      "name": "floatBufferViews",
      "target": 34962
    },
    {
      "buffer": 0,
      "byteLength": 926112,
      "byteOffset": 1142032,
      "byteStride": 12,
      "name": "floatBufferViews",
      "target": 34962
    }
  ],
  "buffers": [
    {
      "byteLength": 2068144,
      "uri": "allStar.bin"
    }
  ],
  "extensionsUsed": [
    "KHR_materials_unlit"
  ],
  "images": [
    {
      "uri": "allStarTextures/material_1_baseColor.png"
    }
  ],
  "materials": [
    {
      "doubleSided": true,
      "extensions": {
        "KHR_materials_unlit": {}
      },
      "name": "material_1",
      "pbrMetallicRoughness": {
        "baseColorTexture": {
          "index": 0
        },
        "metallicFactor": 0.0
      }
    }
  ],
  "meshes": [
    {
      "name": "Object_0",
      "primitives": [
        {
          "attributes": {
            "NORMAL": 1,
            "POSITION": 0,
            "TEXCOORD_0": 2
          },
          "indices": 3,
          "material": 0,
          "mode": 4
        }
      ]
    },
    {
      "name": "Object_1",
      "primitives": [
        {
          "attributes": {
            "NORMAL": 5,
            "POSITION": 4,
            "TEXCOORD_0": 6
          },
          "indices": 7,
          "material": 0,
          "mode": 4
        }
      ]
    }
  ],
  "nodes": [
    {
      "children": [
        1
      ],
      "matrix": [
        1.0,
        0.0,
        0.0,
        0.0,
        0.0,
        2.220446049250313e-16,
        -1.0,
        0.0,
        0.0,
        1.0,
        2.220446049250313e-16,
        0.0,
        0.0,
        0.0,
        0.0,
        1.0
      ],
      "name": "Sketchfab_model"
    },
    {
      "children": [
        2,
        3
      ],
      "name": "converse.obj.cleaner.materialmerger.gles"
    },
    {
      "mesh": 0,
      "name": "Object_2"
    },
    {
      "mesh": 1,
      "name": "Object_3"
    }
  ],
  "samplers": [
    {
      "magFilter": 9729,
      "minFilter": 9987,
      "wrapS": 10497,
      "wrapT": 10497
    }
  ],
  "scene": 0,
  "scenes": [
    {
      "name": "Sketchfab_Scene",
      "nodes": [
        0
      ]
    }
  ],
  "textures": [
    {
      "sampler": 0,
      "source": 0
    }
  ]
}
