{
  "accessors": [
    {
      "bufferView": 2,
      "componentType": 5126,
      "count": 55056,
      "max": [
        0.44393500685691833,
        0.4058249890804291,
        0.3007969856262207
      ],
      "min": [
        -0.5146639943122864,
        -0.44985800981521606,
        -0.312063992023468
      ],
      "type": "VEC3"
    },
    {
      "bufferView": 2,
      "byteOffset": 660672,
      "componentType": 5126,
      "count": 55056,
      "max": [
        0.9998761415481567,
        0.9998558759689331,
        0.9999880194664001
      ],
      "min": [
        -0.999859094619751,
        -0.9998466372489929,
        -0.9999546408653259
      ],
      "type": "VEC3"
    },
    {
      "bufferView": 1,
      "componentType": 5126,
      "count": 55056,
      "max": [
        0.9957399964332581,
        0.9999889731407166
      ],
      "min": [
        6.276679869188229e-06,
        3.92795009247493e-05
      ],
      "type": "VEC2"
    },
    {
      "bufferView": 0,
      "componentType": 5125,
      "count": 300000,
      "type": "SCALAR"
    }
  ],
  "asset": {
    "extras": {
      "author": "Moshe Caine (https://sketchfab.com/mosheca)",
      "license": "CC-BY-4.0 (http://creativecommons.org/licenses/by/4.0/)",
      "source": "https://sketchfab.com/3d-models/photocatch-shoe-6c79df0acb6d44c8b7616ce9e048ea75",
      "title": "Photocatch Shoe"
    },
    "generator": "Sketchfab-11.58.0",
    "version": "2.0"
  },
  "bufferViews": [
    {
      "buffer": 0,
      "byteLength": 1200000,
      "name": "floatBufferViews",
      "target": 34963
    },
    {
      "buffer": 0,
      "byteLength": 440448,
      "byteOffset": 1200000,
      "byteStride": 8,
      "name": "floatBufferViews",
      "target": 34962
    },
    {
      "buffer": 0,
      "byteLength": 1321344,
      "byteOffset": 1640448,
      "byteStride": 12,
      "name": "floatBufferViews",
      "target": 34962
    }
  ],
  "buffers": [
    {
      "byteLength": 2961792,
      "uri": "columbia.bin"
    }
  ],
  "images": [
    {
      "uri": "columbiaTextures/material_1_baseColor.png"
    },
    {
      "uri": "columbiaTextures/material_1_metallicRoughness.png"
    }
  ],
  "materials": [
    {
      "doubleSided": true,
      "name": "material_1",
      "pbrMetallicRoughness": {
        "baseColorTexture": {
          "index": 0
        },
        "metallicFactor": 0.0,
        "metallicRoughnessTexture": {
          "index": 1
        }
      }
    }
  ],
  "meshes": [
    {
      "name": "Object_0",
      "primitives": [
        {
          "attributes": {
            "NORMAL": 1,
            "POSITION": 0,
            "TEXCOORD_0": 2
          },
          "indices": 3,
          "material": 0,
          "mode": 4
        }
      ]
    }
  ],
  "nodes": [
    {
      "children": [
        1
      ],
      "matrix": [
        0.7377616763114929,
        0.23099112510681166,
        -0.6343112587928772,
        0.0,
        0.6255613565444946,
        0.11924333125352843,
        0.7710084319114685,
        0.0,
        0.25373348593711853,
        -0.9656211137771606,
        -0.05652594938874266,
        0.0,
        0.005927804857492447,
        -0.00027925620088354116,
        0.01623985730111599,
        1.0
      ],
      "name": "Sketchfab_model"
    },
    {
      "children": [
        2
      ],
      "name": "model.obj.cleaner.materialmerger.gles"
    },
    {
      "mesh": 0,
      "name": "Object_2"
    }
  ],
  "samplers": [
    {
      "magFilter": 9729,
      "minFilter": 9987,
      "wrapS": 10497,
      "wrapT": 10497
    }
  ],
  "scene": 0,
  "scenes": [
    {
      "name": "Sketchfab_Scene",
      "nodes": [
        0
      ]
    }
  ],
  "textures": [
    {
      "sampler": 0,
      "source": 0
    },
    {
      "sampler": 0,
      "source": 1
    }
  ]
}
