{
  "accessors": [
    {
      "bufferView": 2,
      "componentType": 5126,
      "count": 2,
      "max": [
        0.31305700540542603,
        1.3585799932479858,
        0.31015300750732422
      ],
      "min": [
        0.31274199485778809,
        1.3584990501403809,
        0.3100849986076355
      ],
      "type": "VEC3"
    },
    {
      "bufferView": 1,
      "componentType": 5126,
      "count": 2,
      "max": [
        0,
        0
      ],
      "min": [
        0,
        0
      ],
      "type": "VEC2"
    },
    {
      "bufferView": 0,
      "componentType": 5125,
      "count": 2,
      "max": [
        1
      ],
      "min": [
        0
      ],
      "type": "SCALAR"
    },
    {
      "bufferView": 2,
      "byteOffset": 24,
      "componentType": 5126,
      "count": 701,
      "max": [
        0.72659099102020264,
        1.5885800123214722,
        1.3689160346984863
      ],
      "min": [
        -0.45938199758529663,
        0.93549400568008423,
        -0.57836097478866577
      ],
      "type": "VEC3"
    },
    {
      "bufferView": 2,
      "byteOffset": 8436,
      "componentType": 5126,
      "count": 701,
      "max": [
        0.8107830286026001,
        0.98929870128631592,
        0.99742734432220459
      ],
      "min": [
        -0.99168401956558228,
        -0.8115888237953186,
        -0.98988360166549683
      ],
      "type": "VEC3"
    },
    {
      "bufferView": 3,
      "componentType": 5126,
      "count": 701,
      "max": [
        0.96098470687866211,
        0.91328620910644531,
        0.97989481687545776,
        1
      ],
      "min": [
        -0.83811295032501221,
        -0.89429587125778198,
        -0.99948424100875854,
        1
      ],
      "type": "VEC4"
    },
    {
      "bufferView": 1,
      "byteOffset": 16,
      "componentType": 5126,
      "count": 701,
      "max": [
        0.99967497587203979,
        0.9973289966583252
      ],
      "min": [
        0.072198003530502319,
        0.032476000487804413
      ],
      "type": "VEC2"
    },
    {
      "bufferView": 0,
      "byteOffset": 8,
      "componentType": 5125,
      "count": 843,
      "max": [
        700
      ],
      "min": [
        0
      ],
      "type": "SCALAR"
    },
    {
      "bufferView": 2,
      "byteOffset": 16848,
      "componentType": 5126,
      "count": 29830,
      "max": [
        1.0125329494476318,
        1.9807939529418945,
        1.8654719591140747
      ],
      "min": [
        -0.60526800155639648,
        0.21211999654769897,
        -1.0362399816513062
      ],
      "type": "VEC3"
    },
    {
      "bufferView": 2,
      "byteOffset": 374808,
      "componentType": 5126,
      "count": 29830,
      "max": [
        0.99993586540222168,
        0.99987983703613281,
        0.9997677206993103
      ],
      "min": [
        -0.99992239475250244,
        -0.99993753433227539,
        -0.99987912178039551
      ],
      "type": "VEC3"
    },
    {
      "bufferView": 3,
      "byteOffset": 11216,
      "componentType": 5126,
      "count": 29830,
      "max": [
        0.99998331069946289,
        0.99988692998886108,
        0.99993979930877686,
        1
      ],
      "min": [
        -0.99990838766098022,
        -0.99999576807022095,
        -0.99999076128005981,
        -1
      ],
      "type": "VEC4"
    },
    {
      "bufferView": 1,
      "byteOffset": 5624,
      "componentType": 5126,
      "count": 29830,
      "max": [
        0.99997901916503906,
        1
      ],
      "min": [
        0,
        0
      ],
      "type": "VEC2"
    },
    {
      "bufferView": 0,
      "byteOffset": 3380,
      "componentType": 5125,
      "count": 78723,
      "max": [
        29829
      ],
      "min": [
        0
      ],
      "type": "SCALAR"
    }
  ],
  "asset": {
    "extras": {
      "author": "blenderdac (https://sketchfab.com/blenderdac)",
      "license": "CC-BY-4.0 (http://creativecommons.org/licenses/by/4.0/)",
      "source": "https://sketchfab.com/3d-models/blenderdac-rtfkt-cc13-cp2077-low-dc2869ff99b84b269f8e54b441fb0592",
      "title": "Blenderdac RTFKT CC13 CP2077 LOW"
    },
    "generator": "Sketchfab-10.33.1",
    "version": "2.0"
  },
  "bufferViews": [
    {
      "buffer": 0,
      "byteLength": 318272,
      "byteOffset": 0,
      "name": "floatBufferViews",
      "target": 34963
    },
    {
      "buffer": 0,
      "byteLength": 244264,
      "byteOffset": 318272,
      "byteStride": 8,
      "name": "floatBufferViews",
      "target": 34962
    },
    {
      "buffer": 0,
      "byteLength": 732768,
      "byteOffset": 562536,
      "byteStride": 12,
      "name": "floatBufferViews",
      "target": 34962
    },
    {
      "buffer": 0,
      "byteLength": 488496,
      "byteOffset": 1295304,
      "byteStride": 16,
      "name": "floatBufferViews",
      "target": 34962
    }
  ],
  "buffers": [
    {
      "byteLength": 1783800,
      "uri": "cp2077.bin"
    }
  ],
  "images": [
    {
      "uri": "cp2077Textures/BAKED_LOW_baseColor.png"
    },
    {
      "uri": "cp2077Textures/BAKED_LOW_metallicRoughness.png"
    },
    {
      "uri": "cp2077Textures/BAKED_LOW_emissive.png"
    },
    {
      "uri": "cp2077Textures/BAKED_LOW_normal.png"
    }
  ],
  "materials": [
    {
      "doubleSided": true,
      "emissiveFactor": [
        1,
        1,
        1
      ],
      "emissiveTexture": {
        "index": 2,
        "texCoord": 0
      },
      "name": "BAKED_LOW",
      "normalTexture": {
        "index": 3,
        "scale": 1,
        "texCoord": 0
      },
      "occlusionTexture": {
        "index": 1,
        "strength": 1,
        "texCoord": 0
      },
      "pbrMetallicRoughness": {
        "baseColorFactor": [
          1,
          1,
          1,
          1
        ],
        "baseColorTexture": {
          "index": 0,
          "texCoord": 0
        },
        "metallicFactor": 0,
        "metallicRoughnessTexture": {
          "index": 1,
          "texCoord": 0
        },
        "roughnessFactor": 1
      }
    }
  ],
  "meshes": [
    {
      "primitives": [
        {
          "attributes": {
            "POSITION": 0,
            "TEXCOORD_0": 1
          },
          "indices": 2,
          "material": 0,
          "mode": 1
        }
      ]
    },
    {
      "primitives": [
        {
          "attributes": {
            "NORMAL": 4,
            "POSITION": 3,
            "TANGENT": 5,
            "TEXCOORD_0": 6
          },
          "indices": 7,
          "material": 0,
          "mode": 4
        }
      ]
    },
    {
      "primitives": [
        {
          "attributes": {
            "NORMAL": 9,
            "POSITION": 8,
            "TANGENT": 10,
            "TEXCOORD_0": 11
          },
          "indices": 12,
          "material": 0,
          "mode": 4
        }
      ]
    }
  ],
  "nodes": [
    {
      "children": [
        1
      ],
      "name": "RootNode (gltf orientation matrix)",
      "rotation": [
        -0.70710678118654746,
        -0,
        -0,
        0.70710678118654757
      ]
    },
    {
      "children": [
        2
      ],
      "matrix": [
        0.13123360276222229,
        0,
        0,
        0,
        0,
        0.13123360276222229,
        0,
        0,
        0,
        0,
        0.13123360276222229,
        0,
        0,
        0,
        0,
        1
      ],
      "name": "RootNode (model correction matrix)"
    },
    {
      "children": [
        3,
        4,
        5
      ],
      "name": "CC13_CP2077_LOW.obj.cleaner.materialmerger.gles"
    },
    {
      "mesh": 0,
      "name": ""
    },
    {
      "mesh": 1,
      "name": ""
    },
    {
      "mesh": 2,
      "name": ""
    }
  ],
  "samplers": [
    {
      "magFilter": 9729,
      "minFilter": 9987,
      "wrapS": 10497,
      "wrapT": 10497
    }
  ],
  "scene": 0,
  "scenes": [
    {
      "name": "OSG_Scene",
      "nodes": [
        0
      ]
    }
  ],
  "textures": [
    {
      "sampler": 0,
      "source": 0
    },
    {
      "sampler": 0,
      "source": 1
    },
    {
      "sampler": 0,
      "source": 2
    },
    {
      "sampler": 0,
      "source": 3
    }
  ]
}

