{
  "accessors": [
    {
      "bufferView": 2,
      "componentType": 5126,
      "count": 54222,
      "max": [
        0.6426005959510803,
        0.5196428298950195,
        0.489615797996521
      ],
      "min": [
        -0.781847357749939,
        -0.47564348578453064,
        -0.6062263250350952
      ],
      "type": "VEC3"
    },
    {
      "bufferView": 2,
      "byteOffset": 650664,
      "componentType": 5126,
      "count": 54222,
      "max": [
        0.9998356699943542,
        0.9994491338729858,
        0.9987236857414246
      ],
      "min": [
        -0.9997829794883728,
        -0.9999217987060547,
        -0.9999334812164307
      ],
      "type": "VEC3"
    },
    {
      "bufferView": 1,
      "componentType": 5126,
      "count": 54222,
      "max": [
        0.9988170266151428,
        0.9991148710250854
      ],
      "min": [
        0.000707999977748841,
        0.0012919999426230788
      ],
      "type": "VEC2"
    },
    {
      "bufferView": 0,
      "componentType": 5125,
      "count": 54222,
      "type": "SCALAR"
    },
    {
      "bufferView": 2,
      "byteOffset": 1301328,
      "componentType": 5126,
      "count": 61863,
      "max": [
        0.6383447647094727,
        0.5173168182373047,
        0.5026308298110962
      ],
      "min": [
        -0.7806280851364136,
        -0.4760953187942505,
        -0.590499997138977
      ],
      "type": "VEC3"
    },
    {
      "bufferView": 2,
      "byteOffset": 2043684,
      "componentType": 5126,
      "count": 61863,
      "max": [
        0.9998440742492676,
        0.9999457597732544,
        0.9996817111968994
      ],
      "min": [
        -0.9998355507850647,
        -0.9999794363975525,
        -0.9999274611473083
      ],
      "type": "VEC3"
    },
    {
      "bufferView": 1,
      "byteOffset": 433776,
      "componentType": 5126,
      "count": 61863,
      "max": [
        1.9992409944534302,
        0.9993739724159241
      ],
      "min": [
        1.0015451908111572,
        0.0009289999725297093
      ],
      "type": "VEC2"
    },
    {
      "bufferView": 0,
      "byteOffset": 216888,
      "componentType": 5125,
      "count": 61863,
      "type": "SCALAR"
    },
    {
      "bufferView": 2,
      "byteOffset": 2786040,
      "componentType": 5126,
      "count": 59358,
      "max": [
        0.6413194537162781,
        0.5152323246002197,
        0.49807894229888916
      ],
      "min": [
        -0.781847357749939,
        -0.46794965863227844,
        -0.6072909235954285
      ],
      "type": "VEC3"
    },
    {
      "bufferView": 2,
      "byteOffset": 3498336,
      "componentType": 5126,
      "count": 59358,
      "max": [
        0.9999536275863647,
        0.9992538690567017,
        0.9996041655540466
      ],
      "min": [
        -0.9996563196182251,
        -0.9999769926071167,
        -0.9998980760574341
      ],
      "type": "VEC3"
    },
    {
      "bufferView": 1,
      "byteOffset": 928680,
      "componentType": 5126,
      "count": 59358,
      "max": [
        2.8063769340515137,
        0.9569919109344482
      ],
      "min": [
        2.000614881515503,
        0.001415999955497682
      ],
      "type": "VEC2"
    },
    {
      "bufferView": 0,
      "byteOffset": 464340,
      "componentType": 5125,
      "count": 59358,
      "type": "SCALAR"
    }
  ],
  "asset": {
    "extras": {
      "author": "Leighton M (https://sketchfab.com/LarryTentacles)",
      "license": "CC-BY-4.0 (http://creativecommons.org/licenses/by/4.0/)",
      "source": "https://sketchfab.com/3d-models/adidas-harden-vol4-basketball-shoe-3a99f436801842deba348bcf487ce1f5",
      "title": "Adidas Harden Vol.4 Basketball Shoe"
    },
    "generator": "Sketchfab-11.57.0",
    "version": "2.0"
  },
  "bufferViews": [
    {
      "buffer": 0,
      "byteLength": 701772,
      "name": "floatBufferViews",
      "target": 34963
    },
    {
      "buffer": 0,
      "byteLength": 1403544,
      "byteOffset": 701772,
      "byteStride": 8,
      "name": "floatBufferViews",
      "target": 34962
    },
    {
      "buffer": 0,
      "byteLength": 4210632,
      "byteOffset": 2105316,
      "byteStride": 12,
      "name": "floatBufferViews",
      "target": 34962
    }
  ],
  "buffers": [
    {
      "byteLength": 6315948,
      "uri": "hardemVol4.bin"
    }
  ],
  "images": [
    {
      "uri": "hardemVol4Textures/TextureAtlas_1001_baseColor.png"
    },
    {
      "uri": "hardemVol4Textures/TextureAtlas_1002_baseColor.png"
    },
    {
      "uri": "hardemVol4Textures/TextureAtlas_1003_baseColor.png"
    }
  ],
  "materials": [
    {
      "doubleSided": true,
      "name": "TextureAtlas_1001",
      "pbrMetallicRoughness": {
        "baseColorTexture": {
          "index": 0
        },
        "metallicFactor": 0.0
      }
    },
    {
      "doubleSided": true,
      "name": "TextureAtlas_1002",
      "pbrMetallicRoughness": {
        "baseColorTexture": {
          "index": 1
        },
        "metallicFactor": 0.0,
        "roughnessFactor": 0.0
      }
    },
    {
      "doubleSided": true,
      "name": "TextureAtlas_1003",
      "pbrMetallicRoughness": {
        "baseColorTexture": {
          "index": 2
        },
        "metallicFactor": 0.0
      }
    }
  ],
  "meshes": [
    {
      "name": "texturedMesh_TextureAtlas_1001_0",
      "primitives": [
        {
          "attributes": {
            "NORMAL": 1,
            "POSITION": 0,
            "TEXCOORD_0": 2
          },
          "indices": 3,
          "material": 0,
          "mode": 4
        }
      ]
    },
    {
      "name": "texturedMesh_TextureAtlas_1002_0",
      "primitives": [
        {
          "attributes": {
            "NORMAL": 5,
            "POSITION": 4,
            "TEXCOORD_0": 6
          },
          "indices": 7,
          "material": 1,
          "mode": 4
        }
      ]
    },
    {
      "name": "texturedMesh_TextureAtlas_1003_0",
      "primitives": [
        {
          "attributes": {
            "NORMAL": 9,
            "POSITION": 8,
            "TEXCOORD_0": 10
          },
          "indices": 11,
          "material": 2,
          "mode": 4
        }
      ]
    }
  ],
  "nodes": [
    {
      "children": [
        1
      ],
      "matrix": [
        1.0,
        0.0,
        0.0,
        0.0,
        0.0,
        2.220446049250313e-16,
        -1.0,
        0.0,
        0.0,
        1.0,
        2.220446049250313e-16,
        0.0,
        0.0,
        0.0,
        0.0,
        1.0
      ],
      "name": "Sketchfab_model"
    },
    {
      "children": [
        2
      ],
      "matrix": [
        0.009999999776482582,
        0.0,
        0.0,
        0.0,
        0.0,
        0.0,
        0.009999999776482582,
        0.0,
        0.0,
        -0.009999999776482582,
        0.0,
        0.0,
        0.0,
        0.0,
        0.0,
        1.0
      ],
      "name": "25d3ba4004aa43e9bdfb41ad4bda21ac.fbx"
    },
    {
      "children": [
        3,
        6,
        8
      ],
      "name": "RootNode"
    },
    {
      "children": [
        4
      ],
      "matrix": [
        -29.08647719990347,
        -5.518906457566863,
        -95.51711910171437,
        0.0,
        56.63930913109449,
        79.46723428563203,
        -21.83912397841966,
        0.0,
        77.11008775993375,
        -60.45246356562044,
        -19.98834696773717,
        0.0,
        407.6245422363281,
        590.38623046875,
        -100.54539489746094,
        1.0
      ],
      "name": "Light"
    },
    {
      "children": [
        5
      ],
      "matrix": [
        1.0,
        0.0,
        0.0,
        0.0,
        0.0,
        2.220446049250313e-16,
        1.0,
        0.0,
        0.0,
        -1.0,
        2.220446049250313e-16,
        0.0,
        0.0,
        0.0,
        0.0,
        1.0
      ],
      "name": "Object_4"
    },
    {
      "name": "Object_5"
    },
    {
      "children": [
        7
      ],
      "matrix": [
        -65.15581009765468,
        -44.527143038140764,
        -61.41704928909654,
        0.0,
        -32.40135466989878,
        89.5395708958271,
        -30.542085476036902,
        0.0,
        68.59207001076176,
        1.2755314797120858e-05,
        -72.76761921184276,
        0.0,
        735.88916015625,
        495.8309326171875,
        692.5791015625,
        1.0
      ],
      "name": "Camera"
    },
    {
      "name": "Object_7"
    },
    {
      "children": [
        9,
        10,
        11
      ],
      "matrix": [
        -80.00247488311791,
        7.862257879123968,
        59.47931500629641,
        0.0,
        -48.4457468228841,
        -66.94715512243947,
        -56.31241457960259,
        0.0,
        35.39228203081993,
        -73.86652369005986,
        57.368310508474316,
        0.0,
        0.0,
        0.0,
        0.0,
        1.0
      ],
      "name": "texturedMesh"
    },
    {
      "mesh": 0,
      "name": "texturedMesh_TextureAtlas_1001_0"
    },
    {
      "mesh": 1,
      "name": "texturedMesh_TextureAtlas_1002_0"
    },
    {
      "mesh": 2,
      "name": "texturedMesh_TextureAtlas_1003_0"
    }
  ],
  "samplers": [
    {
      "magFilter": 9729,
      "minFilter": 9987,
      "wrapS": 10497,
      "wrapT": 10497
    }
  ],
  "scene": 0,
  "scenes": [
    {
      "name": "Sketchfab_Scene",
      "nodes": [
        0
      ]
    }
  ],
  "textures": [
    {
      "sampler": 0,
      "source": 0
    },
    {
      "sampler": 0,
      "source": 1
    },
    {
      "sampler": 0,
      "source": 2
    }
  ]
}
